<?xml version="1.0" encoding="utf-8"?>
<!-- Generator: Adobe Illustrator 16.0.0, SVG Export Plug-In . SVG Version: 6.00 Build 0)  -->
<!DOCTYPE svg PUBLIC "-//W3C//DTD SVG 1.1//EN" "http://www.w3.org/Graphics/SVG/1.1/DTD/svg11.dtd">
<svg version="1.1" id="Layer_1" xmlns="http://www.w3.org/2000/svg" xmlns:xlink="http://www.w3.org/1999/xlink" x="0px" y="0px"
	 width="612px" height="401px" viewBox="0 0 612 401" enable-background="new 0 0 612 401" xml:space="preserve">
<g id="JxJIoQ_1_">
	<g>
		<path fill-rule="evenodd" clip-rule="evenodd" d="M335.603,333.806c2.319-5.158,4.485-9.976,6.647-14.785
			c66.238,28.61,141.38-2.995,167.206-66.22c24.9-60.958,0.45-130.533-56.702-160.631c-57.465-30.262-130.102-11.938-164.928,41.555
			c-33.518,51.484-26.058,123.179,22.421,164.112c40.274-31.455,62.531-108.22,17.329-169.768c4.295-3.244,8.611-6.505,12.926-9.764
			c33.67,41.057,44.751,115.518-2.708,174.288c-47.806,59.201-131.461,71.271-192.269,27.855
			c-62.929-44.931-80.108-127.395-40.197-191.312c41.516-66.486,132.2-92.791,205.149-41.614
			c63.898-45.121,143.736-30.567,190.066,22.74c46.769,53.811,47.538,130.412,1.856,184.49
			C455.186,350.646,383.949,356.966,335.603,333.806z M296.137,99.229c-43.745-32.18-120.406-30.797-165.289,22.014
			C86,174.014,92.413,255.444,144.432,299.638c51.32,43.599,121.531,32.738,151.45,8.756
			C236.306,251.228,233.921,158.792,296.137,99.229z"/>
	</g>
</g>
</svg>
